#N canvas 168 225 514 510 10;
#X obj 173 20 inlet;
#X obj 175 359 outlet~;
#X obj 263 21 r attack;
#X obj 447 25 r decay;
#X obj 362 21 r sustain;
#X obj 65 20 r release;
#X obj 173 60 sel 0;
#X obj 200 94 t b b b;
#X msg 186 153 0;
#X obj 235 148 pack 1 0;
#X obj 176 296 line~;
#X text 238 128 attack;
#X obj 313 84 + 1;
#X obj 343 128 del;
#X obj 344 177 pack 0 0 0;
#X obj 344 214 route 0;
#X text 348 158 decay;
#X obj 60 99 pack 0 0;
#X msg 147 97 stop;
#X text 56 77 release;
#X msg 117 64 0;
#X connect 0 0 6 0;
#X connect 2 0 9 1;
#X connect 2 0 12 0;
#X connect 3 0 14 2;
#X connect 4 0 14 1;
#X connect 5 0 17 1;
#X connect 6 0 18 0;
#X connect 6 0 20 0;
#X connect 6 1 7 0;
#X connect 7 0 13 0;
#X connect 7 1 9 0;
#X connect 7 2 8 0;
#X connect 8 0 10 0;
#X connect 9 0 10 0;
#X connect 10 0 1 0;
#X connect 12 0 13 1;
#X connect 13 0 14 0;
#X connect 14 0 15 0;
#X connect 15 0 10 0;
#X connect 17 0 10 0;
#X connect 18 0 13 0;
#X connect 20 0 17 0;
