#N canvas 531 33 689 740 10;
#X obj 40 452 *~;
#X obj 40 256 osc~;
#X obj 40 284 *~;
#X obj 40 310 unsig~ 1;
#X obj 177 259 osc~;
#X obj 177 287 *~;
#X obj 177 313 unsig~ 1;
#X obj 441 257 osc~;
#X obj 441 285 *~;
#X obj 441 311 unsig~ 1;
#X obj 575 258 osc~;
#X obj 575 286 *~;
#X obj 575 312 unsig~ 1;
#X obj 159 22 inlet~;
#X obj 163 640 outlet~;
#X obj 438 25 inlet~;
#X obj 428 641 outlet~;
#X obj 441 456 *~;
#X obj 190 78 delwrite~ chorus1L 5000;
#X obj 169 100 delwrite~ chorus2L 5000;
#X obj 40 372 delread~ chorus1L;
#X obj 177 374 delread~ chorus2L;
#X obj 464 81 delwrite~ chorus1R 5000;
#X obj 440 102 delwrite~ chorus2R 5000;
#X obj 441 375 delread~ chorus1R;
#X obj 576 374 delread~ chorus2R;
#X obj 179 168 r chorRate1;
#X obj 178 206 r chorDepth1;
#X obj 502 168 r chorRate2;
#X obj 495 207 r chorDepth2;
#X obj 242 412 r Voice1Level;
#X obj 345 413 r Voice2Level;
#X obj 177 454 *~;
#X obj 576 454 *~;
#X floatatom 62 197 5 0 0 0 - - -;
#X floatatom 113 281 5 0 0 0 - - -;
#X obj 40 337 + 30;
#X obj 177 340 + 30;
#X obj 441 338 + 30;
#X obj 576 339 + 30;
#X obj 291 479 r chorDW;
#X obj 290 518 expr 1-$f1;
#X obj 140 572 *~;
#X obj 202 573 *~;
#X obj 415 571 *~;
#X obj 477 572 *~;
#X text 295 461 Dry/Wet;
#X obj 228 478 loadbang;
#X msg 234 505 0;
#X connect 0 0 43 0;
#X connect 1 0 2 0;
#X connect 2 0 3 0;
#X connect 3 0 36 0;
#X connect 4 0 5 0;
#X connect 5 0 6 0;
#X connect 6 0 37 0;
#X connect 7 0 8 0;
#X connect 8 0 9 0;
#X connect 9 0 38 0;
#X connect 10 0 11 0;
#X connect 11 0 12 0;
#X connect 12 0 39 0;
#X connect 13 0 18 0;
#X connect 13 0 19 0;
#X connect 13 0 42 0;
#X connect 15 0 22 0;
#X connect 15 0 23 0;
#X connect 15 0 44 0;
#X connect 17 0 45 0;
#X connect 20 0 0 0;
#X connect 21 0 32 0;
#X connect 24 0 17 0;
#X connect 25 0 33 0;
#X connect 26 0 1 0;
#X connect 26 0 7 0;
#X connect 26 0 34 0;
#X connect 27 0 8 1;
#X connect 27 0 2 1;
#X connect 27 0 35 0;
#X connect 28 0 10 0;
#X connect 28 0 4 0;
#X connect 29 0 11 1;
#X connect 29 0 5 1;
#X connect 30 0 0 1;
#X connect 30 0 17 1;
#X connect 31 0 32 1;
#X connect 31 0 33 1;
#X connect 32 0 43 0;
#X connect 33 0 45 0;
#X connect 36 0 20 0;
#X connect 37 0 21 0;
#X connect 38 0 24 0;
#X connect 39 0 25 0;
#X connect 40 0 41 0;
#X connect 40 0 43 1;
#X connect 40 0 45 1;
#X connect 41 0 42 1;
#X connect 41 0 44 1;
#X connect 42 0 14 0;
#X connect 43 0 14 0;
#X connect 44 0 16 0;
#X connect 45 0 16 0;
#X connect 47 0 48 0;
#X connect 48 0 41 0;
