#N canvas 0 0 1366 685 10;
#X obj 605 308 *~;
#X obj 623 205 r DTime;
#X obj 659 276 r feedback;
#X obj 503 261 r DryWet;
#X obj 461 313 expr 1-$f1;
#X obj 532 352 *~;
#X obj 416 348 *~;
#X obj 472 396 outlet~;
#X obj 507 132 inlet~;
#X obj 524 168 delwrite~ aaa 5000;
#X obj 625 237 delread~ aaa;
#X connect 0 0 5 0;
#X connect 0 0 9 0;
#X connect 1 0 10 0;
#X connect 2 0 0 1;
#X connect 3 0 5 1;
#X connect 3 0 4 0;
#X connect 4 0 6 1;
#X connect 5 0 7 0;
#X connect 6 0 7 0;
#X connect 8 0 6 0;
#X connect 8 0 9 0;
#X connect 10 0 0 0;
#X connect 10 0 5 0;
