#N canvas 0 0 1366 685 10;
#X obj 530 92 inlet~;
#X obj 470 144 s~ dry;
#X obj 584 145 delwrite~ flanger 5000;
#X obj 409 236 r flangerRate;
#X obj 473 283 osc~;
#X obj 472 323 *~;
#X obj 543 235 r flangerDepth;
#X obj 472 358 unsig~ 1;
#X obj 472 389 + 10;
#X obj 475 420 delread~ flanger;
#X obj 414 473 r flangerDW;
#X obj 413 511 expr 1-$f1;
#X obj 415 544 r~ dry;
#X obj 534 626 outlet~;
#X obj 581 590 *~;
#X obj 690 491 *~;
#X obj 720 441 r flangerFeed;
#X obj 495 591 *~;
#X connect 0 0 1 0;
#X connect 0 0 2 0;
#X connect 3 0 4 0;
#X connect 4 0 5 0;
#X connect 5 0 7 0;
#X connect 6 0 5 1;
#X connect 7 0 8 0;
#X connect 8 0 9 0;
#X connect 9 0 14 0;
#X connect 9 0 15 0;
#X connect 10 0 14 1;
#X connect 10 0 11 0;
#X connect 11 0 17 1;
#X connect 12 0 17 0;
#X connect 14 0 13 0;
#X connect 15 0 2 0;
#X connect 16 0 15 1;
#X connect 17 0 13 0;
