#N canvas 195 23 1029 677 10;
#X obj 327 35 notein;
#X obj 317 103 poly 8 1;
#X floatatom 259 145 5 0 0 0 - - -;
#X floatatom 317 145 5 0 0 0 - - -;
#X floatatom 371 143 5 0 0 0 - - -;
#X floatatom 383 70 5 0 0 0 - - -;
#X floatatom 270 70 5 0 0 0 - - -;
#X obj 286 185 pack 0 0 0;
#X obj 190 216 print;
#X obj 265 218 route 1 2 3 4 5 6 7 8;
#N canvas 4 23 1676 1005 voice 0;
#X obj 191 44 inlet;
#X obj 177 145 mtof;
#X obj 190 86 unpack;
#X floatatom 131 122 5 0 0 0 - - -;
#X floatatom 290 106 5 0 0 0 - - -;
#X obj 176 320 outlet~;
#X obj 176 251 *~;
#X obj 271 223 ADSR;
#X obj 176 287 *~;
#X obj 337 168 sel 0;
#X obj 338 203 / 127;
#X obj 57 207 tabosc4~ UserTable;
#X connect 0 0 2 0;
#X connect 1 0 11 0;
#X connect 2 0 3 0;
#X connect 2 0 1 0;
#X connect 2 1 4 0;
#X connect 2 1 7 0;
#X connect 2 1 9 0;
#X connect 6 0 8 0;
#X connect 7 0 6 1;
#X connect 8 0 5 0;
#X connect 9 1 10 0;
#X connect 10 0 8 1;
#X connect 11 0 6 0;
#X restore 98 282 pd voice;
#N canvas 4 23 1676 1005 voice 0;
#X obj 191 44 inlet;
#X obj 177 145 mtof;
#X obj 190 86 unpack;
#X floatatom 131 122 5 0 0 0 - - -;
#X floatatom 290 106 5 0 0 0 - - -;
#X obj 176 320 outlet~;
#X obj 176 251 *~;
#X obj 271 223 ADSR;
#X obj 176 287 *~;
#X obj 337 168 sel 0;
#X obj 338 203 / 127;
#X obj 57 207 tabosc4~ UserTable;
#X connect 0 0 2 0;
#X connect 1 0 11 0;
#X connect 2 0 3 0;
#X connect 2 0 1 0;
#X connect 2 1 4 0;
#X connect 2 1 7 0;
#X connect 2 1 9 0;
#X connect 6 0 8 0;
#X connect 7 0 6 1;
#X connect 8 0 5 0;
#X connect 9 1 10 0;
#X connect 10 0 8 1;
#X connect 11 0 6 0;
#X restore 157 282 pd voice;
#N canvas 4 23 1676 1005 voice 0;
#X obj 191 44 inlet;
#X obj 177 145 mtof;
#X obj 190 86 unpack;
#X floatatom 131 122 5 0 0 0 - - -;
#X floatatom 290 106 5 0 0 0 - - -;
#X obj 176 320 outlet~;
#X obj 176 251 *~;
#X obj 271 223 ADSR;
#X obj 176 287 *~;
#X obj 337 168 sel 0;
#X obj 338 203 / 127;
#X obj 57 207 tabosc4~ UserTable;
#X connect 0 0 2 0;
#X connect 1 0 11 0;
#X connect 2 0 3 0;
#X connect 2 0 1 0;
#X connect 2 1 4 0;
#X connect 2 1 7 0;
#X connect 2 1 9 0;
#X connect 6 0 8 0;
#X connect 7 0 6 1;
#X connect 8 0 5 0;
#X connect 9 1 10 0;
#X connect 10 0 8 1;
#X connect 11 0 6 0;
#X restore 220 282 pd voice;
#N canvas 4 23 1676 1005 voice 0;
#X obj 191 44 inlet;
#X obj 177 145 mtof;
#X obj 190 86 unpack;
#X floatatom 131 122 5 0 0 0 - - -;
#X floatatom 290 106 5 0 0 0 - - -;
#X obj 176 320 outlet~;
#X obj 176 251 *~;
#X obj 271 223 ADSR;
#X obj 176 287 *~;
#X obj 337 168 sel 0;
#X obj 338 203 / 127;
#X obj 57 207 tabosc4~ UserTable;
#X connect 0 0 2 0;
#X connect 1 0 11 0;
#X connect 2 0 3 0;
#X connect 2 0 1 0;
#X connect 2 1 4 0;
#X connect 2 1 7 0;
#X connect 2 1 9 0;
#X connect 6 0 8 0;
#X connect 7 0 6 1;
#X connect 8 0 5 0;
#X connect 9 1 10 0;
#X connect 10 0 8 1;
#X connect 11 0 6 0;
#X restore 279 282 pd voice;
#N canvas 4 23 1676 1005 voice 0;
#X obj 191 44 inlet;
#X obj 177 145 mtof;
#X obj 190 86 unpack;
#X floatatom 131 122 5 0 0 0 - - -;
#X floatatom 290 106 5 0 0 0 - - -;
#X obj 176 320 outlet~;
#X obj 176 251 *~;
#X obj 271 223 ADSR;
#X obj 176 287 *~;
#X obj 337 168 sel 0;
#X obj 338 203 / 127;
#X obj 57 207 tabosc4~ UserTable;
#X connect 0 0 2 0;
#X connect 1 0 11 0;
#X connect 2 0 3 0;
#X connect 2 0 1 0;
#X connect 2 1 4 0;
#X connect 2 1 7 0;
#X connect 2 1 9 0;
#X connect 6 0 8 0;
#X connect 7 0 6 1;
#X connect 8 0 5 0;
#X connect 9 1 10 0;
#X connect 10 0 8 1;
#X connect 11 0 6 0;
#X restore 334 282 pd voice;
#N canvas 4 23 1676 1005 voice 0;
#X obj 191 44 inlet;
#X obj 177 145 mtof;
#X obj 190 86 unpack;
#X floatatom 131 122 5 0 0 0 - - -;
#X floatatom 290 106 5 0 0 0 - - -;
#X obj 176 320 outlet~;
#X obj 176 251 *~;
#X obj 271 223 ADSR;
#X obj 176 287 *~;
#X obj 337 168 sel 0;
#X obj 338 203 / 127;
#X obj 57 207 tabosc4~ UserTable;
#X connect 0 0 2 0;
#X connect 1 0 11 0;
#X connect 2 0 3 0;
#X connect 2 0 1 0;
#X connect 2 1 4 0;
#X connect 2 1 7 0;
#X connect 2 1 9 0;
#X connect 6 0 8 0;
#X connect 7 0 6 1;
#X connect 8 0 5 0;
#X connect 9 1 10 0;
#X connect 10 0 8 1;
#X connect 11 0 6 0;
#X restore 393 282 pd voice;
#N canvas 4 23 1676 1005 voice 0;
#X obj 191 44 inlet;
#X obj 177 145 mtof;
#X obj 190 86 unpack;
#X floatatom 131 122 5 0 0 0 - - -;
#X floatatom 290 106 5 0 0 0 - - -;
#X obj 176 320 outlet~;
#X obj 176 251 *~;
#X obj 271 223 ADSR;
#X obj 176 287 *~;
#X obj 337 168 sel 0;
#X obj 338 203 / 127;
#X obj 57 207 tabosc4~ UserTable;
#X connect 0 0 2 0;
#X connect 1 0 11 0;
#X connect 2 0 3 0;
#X connect 2 0 1 0;
#X connect 2 1 4 0;
#X connect 2 1 7 0;
#X connect 2 1 9 0;
#X connect 6 0 8 0;
#X connect 7 0 6 1;
#X connect 8 0 5 0;
#X connect 9 1 10 0;
#X connect 10 0 8 1;
#X connect 11 0 6 0;
#X restore 456 282 pd voice;
#N canvas 4 23 1676 1005 voice 0;
#X obj 191 44 inlet;
#X obj 177 145 mtof;
#X obj 190 86 unpack;
#X floatatom 131 122 5 0 0 0 - - -;
#X floatatom 290 106 5 0 0 0 - - -;
#X obj 176 320 outlet~;
#X obj 176 251 *~;
#X obj 271 223 ADSR;
#X obj 176 287 *~;
#X obj 337 168 sel 0;
#X obj 338 203 / 127;
#X obj 57 207 tabosc4~ UserTable;
#X connect 0 0 2 0;
#X connect 1 0 11 0;
#X connect 2 0 3 0;
#X connect 2 0 1 0;
#X connect 2 1 4 0;
#X connect 2 1 7 0;
#X connect 2 1 9 0;
#X connect 6 0 8 0;
#X connect 7 0 6 1;
#X connect 8 0 5 0;
#X connect 9 1 10 0;
#X connect 10 0 8 1;
#X connect 11 0 6 0;
#X restore 515 282 pd voice;
#X obj 310 458 outlet~;
#X connect 0 0 1 0;
#X connect 0 0 6 0;
#X connect 0 1 1 1;
#X connect 0 1 5 0;
#X connect 1 0 2 0;
#X connect 1 1 3 0;
#X connect 1 2 4 0;
#X connect 2 0 7 0;
#X connect 3 0 7 1;
#X connect 4 0 7 2;
#X connect 7 0 8 0;
#X connect 7 0 9 0;
#X connect 9 0 10 0;
#X connect 9 1 11 0;
#X connect 9 2 12 0;
#X connect 9 3 13 0;
#X connect 9 4 14 0;
#X connect 9 5 15 0;
#X connect 9 6 16 0;
#X connect 9 7 17 0;
#X connect 10 0 18 0;
#X connect 11 0 18 0;
#X connect 12 0 18 0;
#X connect 13 0 18 0;
#X connect 14 0 18 0;
#X connect 15 0 18 0;
#X connect 16 0 18 0;
#X connect 17 0 18 0;
