#N canvas -8 -8 1366 685 10;
#X obj 225 58 inlet~;
#X obj 666 33 r preDel;
#X obj 548 72 + 3;
#X obj 632 70 + 6;
#X obj 716 72 + 9;
#X obj 799 72 + 12;
#X obj 882 72 + 15;
#X obj 818 176 r revTime;
#X obj 628 240 *~;
#X obj 638 250 *~;
#X obj 648 260 *~;
#X obj 658 270 *~;
#X obj 668 280 *~;
#X obj 678 290 *~;
#X obj 545 359 *~;
#X obj 641 355 r revDiff;
#X obj 641 401 exp 1-$f1;
#X obj 476 359 *~;
#X obj 306 123 delwrite~ rev1 5000;
#X obj 275 141 delwrite~ rev2 5000;
#X obj 254 159 delwrite~ rev3 5000;
#X obj 239 175 delwrite~ rev4 5000;
#X obj 225 194 delwrite~ rev5 5000;
#X obj 208 211 delwrite~ rev6 5000;
#X obj 465 95 delread~ rev1;
#X obj 548 95 delread~ rev2;
#X obj 632 95 delread~ rev3;
#X obj 716 95 delread~ rev4;
#X obj 799 95 delread~ rev5;
#X obj 882 95 delread~ rev6;
#X obj 413 434 r revDW;
#X obj 511 451 exp 1-$f1;
#X obj 590 442 *~ 0.167;
#X obj 589 470 lop~;
#X obj 669 469 r revLPF;
#X floatatom 669 503 5 0 0 0 - - -;
#X obj 589 498 *~;
#X obj 496 489 *~;
#X obj 495 546 outlet~;
#X text 473 489 DRY;
#X text 566 497 WET;
#X connect 0 0 18 0;
#X connect 0 0 19 0;
#X connect 0 0 20 0;
#X connect 0 0 21 0;
#X connect 0 0 22 0;
#X connect 0 0 23 0;
#X connect 0 0 37 0;
#X connect 1 0 2 0;
#X connect 1 0 3 0;
#X connect 1 0 4 0;
#X connect 1 0 24 0;
#X connect 1 0 5 0;
#X connect 1 0 6 0;
#X connect 2 0 25 0;
#X connect 3 0 26 0;
#X connect 4 0 27 0;
#X connect 5 0 28 0;
#X connect 6 0 29 0;
#X connect 7 0 8 1;
#X connect 7 0 13 1;
#X connect 7 0 12 1;
#X connect 7 0 11 1;
#X connect 7 0 10 1;
#X connect 7 0 9 1;
#X connect 8 0 14 0;
#X connect 8 0 18 0;
#X connect 9 0 14 0;
#X connect 9 0 19 0;
#X connect 10 0 14 0;
#X connect 10 0 20 0;
#X connect 11 0 14 0;
#X connect 11 0 21 0;
#X connect 12 0 14 0;
#X connect 12 0 22 0;
#X connect 13 0 14 0;
#X connect 13 0 23 0;
#X connect 14 0 32 0;
#X connect 15 0 14 1;
#X connect 15 0 16 0;
#X connect 16 0 17 1;
#X connect 17 0 32 0;
#X connect 24 0 8 0;
#X connect 24 0 17 0;
#X connect 25 0 9 0;
#X connect 25 0 17 0;
#X connect 26 0 10 0;
#X connect 26 0 17 0;
#X connect 27 0 11 0;
#X connect 27 0 17 0;
#X connect 28 0 12 0;
#X connect 28 0 17 0;
#X connect 29 0 13 0;
#X connect 29 0 17 0;
#X connect 30 0 31 0;
#X connect 30 0 36 1;
#X connect 31 0 37 1;
#X connect 32 0 33 0;
#X connect 33 0 36 0;
#X connect 34 0 33 1;
#X connect 34 0 35 0;
#X connect 36 0 38 0;
#X connect 37 0 38 0;
